<svg width="24" height="24" viewBox="0 0 24 24" fill="none" xmlns="http://www.w3.org/2000/svg">
<path fill-rule="evenodd" clip-rule="evenodd" d="M4.665 22.5001C3.8265 22.5001 3.03 22.1671 2.43 21.5746C1.83 20.9821 1.5045 20.1781 1.5045 19.3396V4.65464C1.5045 3.81614 1.8375 3.01964 2.43 2.41964C3.0225 1.81964 3.8265 1.49414 4.665 1.49414H19.35C20.1885 1.49414 20.985 1.82714 21.585 2.41964C22.185 3.01214 22.5105 3.81614 22.5105 4.65464V19.3396C22.5105 20.1781 22.1775 20.9746 21.585 21.5746C20.9925 22.1746 20.1885 22.5001 19.35 22.5001H4.665ZM17.49 13.6351H15.27V20.9701H19.35C19.5643 20.9707 19.7766 20.929 19.9747 20.8472C20.1728 20.7655 20.3527 20.6454 20.5043 20.4939C20.6558 20.3424 20.7759 20.1624 20.8576 19.9643C20.9393 19.7662 20.9811 19.5539 20.9805 19.3396V4.65464C20.9807 4.44046 20.9387 4.22835 20.8568 4.03044C20.7749 3.83253 20.6548 3.65271 20.5034 3.50126C20.3519 3.34982 20.1721 3.22972 19.9742 3.14785C19.7763 3.06598 19.5642 3.02394 19.35 3.02414H4.665C4.23293 3.02533 3.8189 3.19749 3.51338 3.50301C3.20785 3.80854 3.03569 4.22257 3.0345 4.65464V19.3396C3.03569 19.7717 3.20785 20.1857 3.51338 20.4913C3.8189 20.7968 4.23293 20.969 4.665 20.9701H12.825V13.6351H10.38V11.1901H12.825V9.87614C12.825 7.38614 14.037 6.29114 16.11 6.29114C17.0805 6.29114 17.6025 6.36164 17.85 6.39614L17.865 6.39764V8.73764H16.455C15.744 8.73764 15.408 9.04214 15.306 9.65564C15.2815 9.81545 15.27 9.97697 15.2715 10.1386V11.1841H17.8365L17.487 13.6291L17.49 13.6351Z" fill="black"/>
</svg>
