<svg width="24" height="24" viewBox="0 0 24 24" fill="none" xmlns="http://www.w3.org/2000/svg">
<path d="M2 10.8889C2 6.69889 2 4.60333 3.30222 3.30222C4.60444 2.00111 6.69889 2 10.8889 2H13.1111C17.3011 2 19.3967 2 20.6978 3.30222C21.9989 4.60444 22 6.69889 22 10.8889V13.1111C22 17.3011 22 19.3967 20.6978 20.6978C19.3956 21.9989 17.3011 22 13.1111 22H10.8889C6.69889 22 4.60333 22 3.30222 20.6978C2.00111 19.3956 2 17.3011 2 13.1111V10.8889Z" stroke="black" stroke-width="2"/>
<path d="M17 8.66634C17.9205 8.66634 18.6667 7.92015 18.6667 6.99967C18.6667 6.0792 17.9205 5.33301 17 5.33301C16.0796 5.33301 15.3334 6.0792 15.3334 6.99967C15.3334 7.92015 16.0796 8.66634 17 8.66634Z" fill="black"/>
<path d="M12 15.3337C13.8409 15.3337 15.3333 13.8413 15.3333 12.0003C15.3333 10.1594 13.8409 8.66699 12 8.66699C10.159 8.66699 8.66664 10.1594 8.66664 12.0003C8.66664 13.8413 10.159 15.3337 12 15.3337Z" stroke="black" stroke-width="2"/>
</svg>
