<svg width="24" height="24" viewBox="0 0 24 24" fill="none" xmlns="http://www.w3.org/2000/svg">
<path d="M22 12C22.0016 13.3172 21.7423 14.6216 21.2369 15.8379C20.7315 17.0542 19.9901 18.1584 19.0555 19.0865C18.1285 20.0118 17.0282 20.7453 15.8176 21.2452C14.607 21.7451 13.3098 22.0016 12 22C6.47701 22 2.00001 17.523 2.00001 12C1.99641 9.43587 2.98136 6.96903 4.75001 5.11251C5.68313 4.12774 6.8074 3.34376 8.05402 2.80858C9.30064 2.27339 10.6434 1.99825 12 2.00001C13.3098 1.99839 14.607 2.25487 15.8176 2.75478C17.0282 3.25469 18.1285 3.98824 19.0555 4.91351C19.9901 5.84165 20.7315 6.94579 21.2369 8.16211C21.7423 9.37844 22.0016 10.6829 22 12Z" stroke="black" stroke-width="2" stroke-linecap="round" stroke-linejoin="round"/>
<path d="M22 11.9998C20.541 11.9998 16.516 11.4498 12.9135 13.0313C9.00002 14.7498 6.16652 17.4158 4.93152 19.0733" stroke="black" stroke-width="2" stroke-linecap="round" stroke-linejoin="round"/>
<path d="M8.25 2.72656C9.815 4.17106 13.23 7.84856 14.5 11.4996C15.77 15.1506 16.24 19.6396 16.53 20.9171" stroke="black" stroke-width="2" stroke-linecap="round" stroke-linejoin="round"/>
<path d="M2.077 10.7504C3.966 10.8644 8.9665 10.9669 12.1665 9.60035C15.3665 8.23385 18.12 5.72035 19.0645 4.92285M2.75 15.8069C3.63129 17.9397 5.22045 19.7038 7.25 20.8024" stroke="black" stroke-width="2" stroke-linecap="round" stroke-linejoin="round"/>
<path d="M2.00001 12C1.99641 9.43587 2.98136 6.96903 4.75001 5.11251C5.68313 4.12774 6.8074 3.34376 8.05402 2.80858C9.30064 2.27339 10.6434 1.99825 12 2.00001M16 2.83201C17.139 3.3299 18.1752 4.03579 19.0555 4.91351C19.9901 5.84165 20.7315 6.94579 21.2369 8.16211C21.7423 9.37844 22.0016 10.6829 22 12C22 13.231 21.7775 14.4105 21.37 15.5M12 22C13.3098 22.0016 14.607 21.7451 15.8176 21.2452C17.0282 20.7453 18.1285 20.0118 19.0555 19.0865" stroke="black" stroke-width="2" stroke-linecap="round" stroke-linejoin="round"/>
</svg>
