<svg width="24" height="24" viewBox="0 0 24 24" fill="none" xmlns="http://www.w3.org/2000/svg">
<path d="M19.3333 1C20.3058 1 21.2384 1.38631 21.9261 2.07394C22.6137 2.76158 23 3.69421 23 4.66667V19.3333C23 20.3058 22.6137 21.2384 21.9261 21.9261C21.2384 22.6137 20.3058 23 19.3333 23H4.66667C3.69421 23 2.76158 22.6137 2.07394 21.9261C1.38631 21.2384 1 20.3058 1 19.3333V4.66667C1 3.69421 1.38631 2.76158 2.07394 2.07394C2.76158 1.38631 3.69421 1 4.66667 1H19.3333ZM19.3333 3.44444H4.66667C4.34251 3.44444 4.03164 3.57321 3.80243 3.80243C3.57321 4.03164 3.44444 4.34251 3.44444 4.66667V19.3333C3.44444 19.6575 3.57321 19.9684 3.80243 20.1976C4.03164 20.4268 4.34251 20.5556 4.66667 20.5556H19.3333C19.6575 20.5556 19.9684 20.4268 20.1976 20.1976C20.4268 19.9684 20.5556 19.6575 20.5556 19.3333V4.66667C20.5556 4.34251 20.4268 4.03164 20.1976 3.80243C19.9684 3.57321 19.6575 3.44444 19.3333 3.44444ZM7.11111 9.55556C7.41047 9.5556 7.69941 9.6655 7.92312 9.86443C8.14683 10.0634 8.28975 10.3375 8.32478 10.6348L8.33333 10.7778V16.8889C8.33299 17.2004 8.2137 17.5 7.99985 17.7266C7.786 17.9531 7.49372 18.0894 7.18274 18.1077C6.87176 18.1259 6.56554 18.0247 6.32665 17.8248C6.08776 17.6248 5.93424 17.3412 5.89744 17.0319L5.88889 16.8889V10.7778C5.88889 10.4536 6.01766 10.1427 6.24687 9.91354C6.47608 9.68433 6.78696 9.55556 7.11111 9.55556ZM10.7778 8.33333C11.064 8.33329 11.3412 8.43371 11.561 8.61709C11.7808 8.80046 11.9292 9.05516 11.9804 9.33678C12.2266 9.19461 12.4809 9.06687 12.7419 8.95422C13.5571 8.60589 14.7781 8.414 15.8806 8.75989C16.4587 8.94322 17.0392 9.28544 17.4694 9.86844C17.8544 10.3879 18.0622 11.0198 18.1038 11.7299L18.1111 12V16.8889C18.1108 17.2004 17.9915 17.5 17.7776 17.7266C17.5638 17.9531 17.2715 18.0894 16.9605 18.1077C16.6495 18.1259 16.3433 18.0247 16.1044 17.8248C15.8655 17.6248 15.712 17.3412 15.6752 17.0319L15.6667 16.8889V12C15.6667 11.5967 15.5689 11.4084 15.5053 11.3217C15.414 11.2083 15.2883 11.1277 15.1472 11.0919C14.7219 10.9574 14.1096 11.0283 13.7026 11.2019C13.0914 11.4634 12.5317 11.8741 12.1503 12.2542L12 12.4156V16.8889C11.9997 17.2004 11.8804 17.5 11.6665 17.7266C11.4527 17.9531 11.1604 18.0894 10.8494 18.1077C10.5384 18.1259 10.2322 18.0247 9.99332 17.8248C9.75443 17.6248 9.6009 17.3412 9.56411 17.0319L9.55556 16.8889V9.55556C9.55556 9.2314 9.68433 8.92053 9.91354 8.69131C10.1427 8.4621 10.4536 8.33333 10.7778 8.33333ZM7.11111 5.88889C7.43526 5.88889 7.74614 6.01766 7.97535 6.24687C8.20456 6.47608 8.33333 6.78696 8.33333 7.11111C8.33333 7.43526 8.20456 7.74614 7.97535 7.97535C7.74614 8.20456 7.43526 8.33333 7.11111 8.33333C6.78696 8.33333 6.47608 8.20456 6.24687 7.97535C6.01766 7.74614 5.88889 7.43526 5.88889 7.11111C5.88889 6.78696 6.01766 6.47608 6.24687 6.24687C6.47608 6.01766 6.78696 5.88889 7.11111 5.88889Z" fill="black"/>
</svg>
