<svg width="25" height="25" viewBox="0 0 25 25" fill="none" xmlns="http://www.w3.org/2000/svg">
<path d="M15.1786 11.0684H14.0536V5.81836H14.4286C15.1248 5.81836 15.7925 6.09492 16.2847 6.5872C16.777 7.07949 17.0536 7.74717 17.0536 8.44336C17.0536 8.74173 17.1721 9.02788 17.3831 9.23885C17.5941 9.44983 17.8802 9.56836 18.1786 9.56836C18.477 9.56836 18.7631 9.44983 18.9741 9.23885C19.1851 9.02788 19.3036 8.74173 19.3036 8.44336C19.3021 7.15089 18.788 5.91178 17.8741 4.99786C16.9602 4.08394 15.7211 3.56985 14.4286 3.56836H14.0536V2.44336C14.0536 2.14499 13.9351 1.85884 13.7241 1.64786C13.5131 1.43689 13.227 1.31836 12.9286 1.31836C12.6302 1.31836 12.3441 1.43689 12.1331 1.64786C11.9221 1.85884 11.8036 2.14499 11.8036 2.44336V3.56836H11.4286C10.1357 3.56836 8.89568 4.08197 7.98144 4.99621C7.0672 5.91045 6.55359 7.15043 6.55359 8.44336C6.55359 9.73629 7.0672 10.9763 7.98144 11.8905C8.89568 12.8047 10.1357 13.3184 11.4286 13.3184H11.8036V18.5684H10.6786C9.9824 18.5684 9.31472 18.2918 8.82243 17.7995C8.33015 17.3072 8.05359 16.6396 8.05359 15.9434C8.05359 15.645 7.93506 15.3588 7.72408 15.1479C7.51311 14.9369 7.22696 14.8184 6.92859 14.8184C6.63022 14.8184 6.34407 14.9369 6.13309 15.1479C5.92212 15.3588 5.80359 15.645 5.80359 15.9434C5.80508 17.2358 6.31917 18.4749 7.23309 19.3889C8.147 20.3028 9.38612 20.8169 10.6786 20.8184H11.8036V21.9434C11.8036 22.2417 11.9221 22.5279 12.1331 22.7389C12.3441 22.9498 12.6302 23.0684 12.9286 23.0684C13.227 23.0684 13.5131 22.9498 13.7241 22.7389C13.9351 22.5279 14.0536 22.2417 14.0536 21.9434V20.8184H15.1786C16.4715 20.8184 17.7115 20.3047 18.6257 19.3905C19.54 18.4763 20.0536 17.2363 20.0536 15.9434C20.0536 14.6504 19.54 13.4105 18.6257 12.4962C17.7115 11.582 16.4715 11.0684 15.1786 11.0684ZM11.4286 11.0684C10.7324 11.0684 10.0647 10.7918 9.57243 10.2995C9.08015 9.80723 8.80359 9.13955 8.80359 8.44336C8.80359 7.74717 9.08015 7.07949 9.57243 6.5872C10.0647 6.09492 10.7324 5.81836 11.4286 5.81836H11.8036V11.0684H11.4286ZM15.1786 18.5684H14.0536V13.3184H15.1786C15.8748 13.3184 16.5425 13.5949 17.0347 14.0872C17.527 14.5795 17.8036 15.2472 17.8036 15.9434C17.8036 16.6396 17.527 17.3072 17.0347 17.7995C16.5425 18.2918 15.8748 18.5684 15.1786 18.5684Z" fill="#1fffa5"/>
</svg>
