<svg width="14" height="11" viewBox="0 0 14 11" fill="none" xmlns="http://www.w3.org/2000/svg">
<path d="M13.0306 2.03057L5.0306 10.0306C4.96092 10.1005 4.87813 10.156 4.78696 10.1938C4.6958 10.2317 4.59806 10.2512 4.49935 10.2512C4.40064 10.2512 4.3029 10.2317 4.21173 10.1938C4.12057 10.156 4.03778 10.1005 3.9681 10.0306L0.468098 6.53057C0.398333 6.4608 0.342993 6.37798 0.305236 6.28683C0.26748 6.19568 0.248047 6.09798 0.248047 5.99932C0.248047 5.90066 0.26748 5.80296 0.305236 5.71181C0.342993 5.62066 0.398333 5.53783 0.468098 5.46807C0.537863 5.3983 0.620685 5.34296 0.711837 5.30521C0.802989 5.26745 0.900686 5.24802 0.999348 5.24802C1.09801 5.24802 1.19571 5.26745 1.28686 5.30521C1.37801 5.34296 1.46083 5.3983 1.5306 5.46807L4.49997 8.43744L11.9693 0.969318C12.1102 0.828422 12.3013 0.749268 12.5006 0.749268C12.6999 0.749268 12.891 0.828422 13.0318 0.969318C13.1727 1.11021 13.2519 1.30131 13.2519 1.50057C13.2519 1.69983 13.1727 1.89092 13.0318 2.03182L13.0306 2.03057Z" fill="#1FFFA5"/>
</svg>
