<svg width="17" height="16" viewBox="0 0 17 16" fill="none" xmlns="http://www.w3.org/2000/svg">
<path d="M13.5 5.25H11.25V3.5C11.25 2.77065 10.9603 2.07118 10.4445 1.55546C9.92882 1.03973 9.22935 0.75 8.5 0.75C7.77065 0.75 7.07118 1.03973 6.55546 1.55546C6.03973 2.07118 5.75 2.77065 5.75 3.5V5.25H3.5C3.30109 5.25 3.11032 5.32902 2.96967 5.46967C2.82902 5.61032 2.75 5.80109 2.75 6V13C2.75 13.1989 2.82902 13.3897 2.96967 13.5303C3.11032 13.671 3.30109 13.75 3.5 13.75H13.5C13.6989 13.75 13.8897 13.671 14.0303 13.5303C14.171 13.3897 14.25 13.1989 14.25 13V6C14.25 5.80109 14.171 5.61032 14.0303 5.46967C13.8897 5.32902 13.6989 5.25 13.5 5.25ZM6.25 3.5C6.25 2.90326 6.48705 2.33097 6.90901 1.90901C7.33097 1.48705 7.90326 1.25 8.5 1.25C9.09674 1.25 9.66903 1.48705 10.091 1.90901C10.5129 2.33097 10.75 2.90326 10.75 3.5V5.25H6.25V3.5ZM13.75 13C13.75 13.0663 13.7237 13.1299 13.6768 13.1768C13.6299 13.2237 13.5663 13.25 13.5 13.25H3.5C3.4337 13.25 3.37011 13.2237 3.32322 13.1768C3.27634 13.1299 3.25 13.0663 3.25 13V6C3.25 5.9337 3.27634 5.87011 3.32322 5.82322C3.37011 5.77634 3.4337 5.75 3.5 5.75H13.5C13.5663 5.75 13.6299 5.77634 13.6768 5.82322C13.7237 5.87011 13.75 5.9337 13.75 6V13ZM9 9.5C9 9.59889 8.97068 9.69556 8.91574 9.77779C8.86079 9.86001 8.7827 9.9241 8.69134 9.96194C8.59998 9.99978 8.49945 10.0097 8.40245 9.99039C8.30546 9.9711 8.21637 9.92348 8.14645 9.85355C8.07652 9.78363 8.0289 9.69454 8.00961 9.59755C7.99031 9.50056 8.00022 9.40002 8.03806 9.30866C8.0759 9.2173 8.13999 9.13921 8.22221 9.08426C8.30444 9.02932 8.40111 9 8.5 9C8.63261 9 8.75979 9.05268 8.85355 9.14645C8.94732 9.24021 9 9.36739 9 9.5Z" fill="#B3B3B3"/>
</svg>
