<svg width="36" height="36" viewBox="0 0 36 36" fill="none" xmlns="http://www.w3.org/2000/svg">
<path d="M28.627 7.17197C26.4945 5.07409 23.7895 3.65335 20.8519 3.08832C17.9144 2.52329 14.8753 2.83918 12.1167 3.99629C9.35816 5.1534 7.00315 7.10009 5.34771 9.5917C3.69226 12.0833 2.81024 15.0087 2.8125 18.0001C2.8125 24.2888 6.69375 29.5665 12.9375 31.7729C13.7011 32.0429 14.5183 32.1257 15.3205 32.0144C16.1227 31.9032 16.8865 31.6011 17.5478 31.1335C18.2091 30.6659 18.7485 30.0465 19.1208 29.3273C19.4931 28.608 19.6875 27.81 19.6875 27.0001C19.6875 26.5525 19.8653 26.1233 20.1818 25.8069C20.4982 25.4904 20.9275 25.3126 21.375 25.3126H27.8733C29.0218 25.318 30.1376 24.9304 31.0355 24.2141C31.9334 23.4979 32.5592 22.4961 32.8092 21.3751C33.07 20.2259 33.197 19.0505 33.1875 17.8721C33.1736 15.8755 32.7634 13.9015 31.9805 12.0646C31.1976 10.2278 30.0578 8.56475 28.627 7.17197ZM29.5186 20.6256C29.4348 20.9986 29.2259 21.3318 28.9266 21.5697C28.6273 21.8076 28.2556 21.9359 27.8733 21.9334H21.375C20.0323 21.9334 18.7447 22.4667 17.7953 23.4161C16.8459 24.3656 16.3125 25.6532 16.3125 26.9959C16.3122 27.2657 16.2472 27.5315 16.123 27.771C15.9987 28.0105 15.8189 28.2167 15.5985 28.3723C15.3781 28.528 15.1236 28.6285 14.8564 28.6655C14.5891 28.7025 14.3169 28.6749 14.0625 28.5849C11.7211 27.7581 9.75235 26.3687 8.37 24.5687C6.934 22.6819 6.16621 20.3711 6.1875 18.0001C6.18734 14.8883 7.41506 11.9021 9.60394 9.69035C11.7928 7.47856 14.766 6.21982 17.8777 6.18759H18C21.1117 6.20026 24.0939 7.4352 26.3035 9.62619C28.5132 11.8172 29.7734 14.7887 29.8125 17.9002C29.8201 18.8188 29.7215 19.7353 29.5186 20.6312V20.6256ZM20.25 10.6876C20.25 11.1326 20.118 11.5676 19.8708 11.9376C19.6236 12.3076 19.2722 12.596 18.861 12.7663C18.4499 12.9366 17.9975 12.9812 17.561 12.8944C17.1246 12.8075 16.7237 12.5932 16.409 12.2786C16.0943 11.9639 15.8801 11.563 15.7932 11.1265C15.7064 10.6901 15.751 10.2377 15.9213 9.82655C16.0916 9.41542 16.38 9.06402 16.75 8.81678C17.12 8.56955 17.555 8.43759 18 8.43759C18.5967 8.43759 19.169 8.67464 19.591 9.0966C20.0129 9.51856 20.25 10.0909 20.25 10.6876ZM14.0625 14.0626C14.0625 14.5076 13.9305 14.9426 13.6833 15.3126C13.4361 15.6826 13.0847 15.971 12.6735 16.1413C12.2624 16.3116 11.81 16.3562 11.3736 16.2694C10.9371 16.1825 10.5362 15.9682 10.2215 15.6536C9.90685 15.3389 9.69255 14.938 9.60574 14.5015C9.51892 14.0651 9.56348 13.6127 9.73377 13.2016C9.90407 12.7904 10.1925 12.439 10.5625 12.1918C10.9325 11.9446 11.3675 11.8126 11.8125 11.8126C12.4092 11.8126 12.9815 12.0496 13.4035 12.4716C13.8254 12.8936 14.0625 13.4659 14.0625 14.0626ZM14.0625 21.9376C14.0625 22.3826 13.9305 22.8176 13.6833 23.1876C13.4361 23.5576 13.0847 23.846 12.6735 24.0163C12.2624 24.1866 11.81 24.2312 11.3736 24.1444C10.9371 24.0575 10.5362 23.8433 10.2215 23.5286C9.90685 23.2139 9.69255 22.813 9.60574 22.3765C9.51892 21.9401 9.56348 21.4877 9.73377 21.0766C9.90407 20.6654 10.1925 20.314 10.5625 20.0668C10.9325 19.8196 11.3675 19.6876 11.8125 19.6876C12.4092 19.6876 12.9815 19.9246 13.4035 20.3466C13.8254 20.7686 14.0625 21.3409 14.0625 21.9376ZM26.4375 14.0626C26.4375 14.5076 26.3055 14.9426 26.0583 15.3126C25.8111 15.6826 25.4597 15.971 25.0485 16.1413C24.6374 16.3116 24.185 16.3562 23.7485 16.2694C23.3121 16.1825 22.9112 15.9682 22.5965 15.6536C22.2818 15.3389 22.0676 14.938 21.9807 14.5015C21.8939 14.0651 21.9385 13.6127 22.1088 13.2016C22.2791 12.7904 22.5675 12.439 22.9375 12.1918C23.3075 11.9446 23.7425 11.8126 24.1875 11.8126C24.7842 11.8126 25.3565 12.0496 25.7785 12.4716C26.2004 12.8936 26.4375 13.4659 26.4375 14.0626Z" fill="#1FFFA5"/>
</svg>
