<svg width="24" height="24" viewBox="0 0 24 24" fill="none" xmlns="http://www.w3.org/2000/svg">
<path d="M22.4231 9.118C22.3294 8.82974 22.1524 8.57568 21.9145 8.38783C21.6766 8.19998 21.3884 8.08673 21.0863 8.06237L15.555 7.61612L13.4194 2.45143C13.3039 2.17001 13.1073 1.92929 12.8547 1.75987C12.602 1.59046 12.3047 1.5 12.0005 1.5C11.6963 1.5 11.3989 1.59046 11.1463 1.75987C10.8936 1.92929 10.6971 2.17001 10.5816 2.45143L8.44781 7.61518L2.91375 8.06237C2.61111 8.08797 2.32274 8.20231 2.08479 8.39106C1.84684 8.57982 1.66988 8.8346 1.57609 9.12348C1.4823 9.41237 1.47584 9.72251 1.55753 10.015C1.63922 10.3076 1.80542 10.5695 2.03531 10.768L6.25406 14.4083L4.96875 19.8514C4.89687 20.1471 4.91447 20.4576 5.01932 20.7432C5.12417 21.0289 5.31154 21.277 5.55765 21.456C5.80376 21.635 6.09751 21.7369 6.4016 21.7486C6.7057 21.7604 7.00643 21.6815 7.26563 21.5221L12 18.6083L16.7372 21.5221C16.9965 21.6796 17.2966 21.757 17.5997 21.7444C17.9029 21.7317 18.1955 21.6297 18.4408 21.451C18.6861 21.2724 18.873 21.0252 18.9781 20.7406C19.0832 20.4559 19.1017 20.1466 19.0313 19.8514L17.7413 14.4074L21.96 10.7671C22.1918 10.5689 22.3595 10.3064 22.4419 10.0128C22.5244 9.71927 22.5178 9.40784 22.4231 9.118ZM20.985 9.63081L16.4194 13.5683C16.3153 13.6581 16.2378 13.7747 16.1955 13.9055C16.1532 14.0362 16.1476 14.1761 16.1794 14.3099L17.5744 20.1974C17.578 20.2055 17.5783 20.2147 17.5754 20.223C17.5724 20.2314 17.5664 20.2383 17.5584 20.2424C17.5416 20.2555 17.5369 20.2527 17.5228 20.2424L12.3928 17.0877C12.2747 17.015 12.1387 16.9766 12 16.9766C11.8613 16.9766 11.7253 17.015 11.6072 17.0877L6.47719 20.2442C6.46313 20.2527 6.45938 20.2555 6.44156 20.2442C6.43365 20.2402 6.42759 20.2333 6.42462 20.2249C6.42166 20.2166 6.42202 20.2074 6.42563 20.1992L7.82063 14.3117C7.85242 14.178 7.84685 14.0381 7.80452 13.9073C7.7622 13.7766 7.68475 13.6599 7.58063 13.5702L3.015 9.63268C3.00375 9.62331 2.99344 9.61487 3.00281 9.58581C3.01219 9.55675 3.01969 9.5605 3.03375 9.55862L9.02625 9.07487C9.1637 9.06308 9.29523 9.01361 9.40638 8.9319C9.51753 8.85019 9.60399 8.73941 9.65625 8.61175L11.9644 3.02331C11.9719 3.00737 11.9747 2.99987 11.9972 2.99987C12.0197 2.99987 12.0225 3.00737 12.03 3.02331L14.3438 8.61175C14.3965 8.73946 14.4835 8.85012 14.5952 8.93152C14.7068 9.01291 14.8388 9.06187 14.9766 9.073L20.9691 9.55675C20.9831 9.55675 20.9916 9.55675 21 9.58393C21.0084 9.61112 21 9.62143 20.985 9.63081Z" fill="#1FFFA5"/>
</svg>
