<svg width="17" height="16" viewBox="0 0 17 16" fill="none" xmlns="http://www.w3.org/2000/svg">
<path d="M14.6769 4.67686L6.67689 12.6769C6.65367 12.7001 6.6261 12.7185 6.59575 12.7311C6.5654 12.7437 6.53287 12.7502 6.50002 12.7502C6.46716 12.7502 6.43463 12.7437 6.40428 12.7311C6.37393 12.7185 6.34636 12.7001 6.32314 12.6769L2.82314 9.17686C2.77623 9.12995 2.74988 9.06633 2.74988 8.99999C2.74988 8.93365 2.77623 8.87002 2.82314 8.82311C2.87005 8.7762 2.93368 8.74985 3.00002 8.74985C3.06636 8.74985 3.12998 8.7762 3.17689 8.82311L6.50002 12.1462L14.3231 4.32311C14.3701 4.2762 14.4337 4.24985 14.5 4.24985C14.5664 4.24985 14.63 4.2762 14.6769 4.32311C14.7238 4.37002 14.7502 4.43365 14.7502 4.49999C14.7502 4.56633 14.7238 4.62995 14.6769 4.67686Z" fill="#B3B3B3"/>
</svg>
