<svg width="25" height="25" viewBox="0 0 25 25" fill="none" xmlns="http://www.w3.org/2000/svg">
<path d="M22.3036 4.69315V9.19315C22.3036 9.49152 22.1851 9.77767 21.9741 9.98865C21.7631 10.1996 21.477 10.3182 21.1786 10.3182H16.6786C16.3802 10.3182 16.0941 10.1996 15.8831 9.98865C15.6721 9.77767 15.5536 9.49152 15.5536 9.19315C15.5536 8.89478 15.6721 8.60863 15.8831 8.39766C16.0941 8.18668 16.3802 8.06815 16.6786 8.06815H18.4598L17.7286 7.3369C16.4047 6.00642 14.6068 5.25584 12.7298 5.25003H12.6895C10.8293 5.24596 9.04234 5.97443 7.71515 7.27784C7.50182 7.48645 7.21435 7.60177 6.91599 7.59843C6.61764 7.59509 6.33282 7.47336 6.12421 7.26003C5.9156 7.04669 5.80029 6.75923 5.80363 6.46087C5.80697 6.16251 5.92869 5.8777 6.14203 5.66909C7.88973 3.95295 10.2429 2.99409 12.6923 3.00003H12.7411C15.2121 3.00676 17.5793 3.99445 19.3223 5.74596L20.0536 6.4744V4.69315C20.0536 4.39478 20.1721 4.10864 20.3831 3.89766C20.5941 3.68668 20.8802 3.56815 21.1786 3.56815C21.477 3.56815 21.7631 3.68668 21.9741 3.89766C22.1851 4.10864 22.3036 4.39478 22.3036 4.69315ZM18.142 17.1085C16.8141 18.4126 15.026 19.1411 13.1648 19.1363H13.1245C11.2476 19.1305 9.44969 18.3799 8.12578 17.0494L7.39734 16.3182H9.17859C9.47696 16.3182 9.76311 16.1996 9.97408 15.9886C10.1851 15.7777 10.3036 15.4915 10.3036 15.1932C10.3036 14.8948 10.1851 14.6086 9.97408 14.3977C9.76311 14.1867 9.47696 14.0682 9.17859 14.0682H4.67859C4.38022 14.0682 4.09407 14.1867 3.88309 14.3977C3.67212 14.6086 3.55359 14.8948 3.55359 15.1932V19.6932C3.55359 19.9915 3.67212 20.2777 3.88309 20.4886C4.09407 20.6996 4.38022 20.8182 4.67859 20.8182C4.97696 20.8182 5.26311 20.6996 5.47408 20.4886C5.68506 20.2777 5.80359 19.9915 5.80359 19.6932V17.9119L6.53484 18.6432C8.27833 20.3936 10.6455 21.3803 13.1161 21.3863H13.1686C15.618 21.3922 17.9712 20.4333 19.7189 18.7172C19.8245 18.6139 19.9088 18.4908 19.9668 18.355C20.0249 18.2191 20.0556 18.0732 20.0573 17.9254C20.059 17.7777 20.0315 17.6311 19.9765 17.494C19.9215 17.3568 19.84 17.2319 19.7367 17.1263C19.6334 17.0206 19.5103 16.9364 19.3745 16.8783C19.2386 16.8203 19.0927 16.7895 18.9449 16.7879C18.7972 16.7862 18.6506 16.8137 18.5135 16.8687C18.3764 16.9237 18.2514 17.0052 18.1458 17.1085H18.142Z" fill="black"/>
</svg>
