<svg width="24" height="24" viewBox="0 0 24 24" fill="none" xmlns="http://www.w3.org/2000/svg">
<path d="M22.065 9.23388C21.9957 9.01537 21.8625 8.82268 21.6825 8.68077C21.5024 8.53886 21.284 8.45427 21.0553 8.43795L15.2925 7.9692L13.0725 2.59451C12.9851 2.38194 12.8364 2.20015 12.6455 2.07221C12.4545 1.94428 12.2298 1.87598 12 1.87598C11.7701 1.87598 11.5455 1.94428 11.3545 2.07221C11.1636 2.20015 11.0149 2.38194 10.9275 2.59451L8.70749 7.9692L2.94468 8.43795C2.71567 8.45739 2.49749 8.54402 2.31752 8.68696C2.13754 8.82991 2.00377 9.02281 1.93299 9.24147C1.8622 9.46014 1.85755 9.69484 1.91961 9.91613C1.98168 10.1374 2.1077 10.3355 2.28187 10.4854L6.67406 14.2739L5.33156 19.9354C5.27533 20.1593 5.28727 20.3948 5.36585 20.6118C5.44443 20.8287 5.58606 21.0173 5.77256 21.1532C5.95905 21.2891 6.18192 21.3662 6.41254 21.3746C6.64316 21.3829 6.87102 21.3222 7.06687 21.2001L12 18.1664L16.9331 21.2001C17.1269 21.3225 17.3532 21.3835 17.5822 21.375C17.8113 21.3664 18.0324 21.2888 18.2166 21.1523C18.4059 21.0183 18.5503 20.8303 18.6309 20.6128C18.7116 20.3953 18.7246 20.1586 18.6684 19.9336L17.3259 14.2692L21.7181 10.4808C21.8941 10.3316 22.0213 10.1329 22.0832 9.91063C22.145 9.68831 22.1387 9.45255 22.065 9.23388ZM21.2278 9.91451L16.6641 13.852C16.6121 13.8968 16.5734 13.9551 16.5522 14.0204C16.5311 14.0857 16.5283 14.1555 16.5441 14.2223L17.9381 20.1089C17.9586 20.1893 17.9541 20.2741 17.9253 20.3519C17.8965 20.4298 17.8447 20.497 17.7769 20.5448C17.7123 20.593 17.6346 20.6204 17.554 20.6234C17.4735 20.6265 17.3939 20.6049 17.3259 20.5617L12.1969 17.407C12.1377 17.3705 12.0695 17.3512 12 17.3512C11.9305 17.3512 11.8623 17.3705 11.8031 17.407L6.67406 20.5617C6.60604 20.6049 6.52649 20.6265 6.44596 20.6234C6.36543 20.6204 6.28771 20.593 6.22312 20.5448C6.15524 20.497 6.10348 20.4298 6.07469 20.3519C6.04589 20.2741 6.04142 20.1893 6.06187 20.1089L7.45593 14.2223C7.47174 14.1555 7.4689 14.0857 7.44774 14.0204C7.42658 13.9551 7.38791 13.8968 7.33593 13.852L2.77218 9.91451C2.70913 9.86136 2.66359 9.79042 2.64151 9.71097C2.61944 9.63152 2.62185 9.54725 2.64843 9.4692C2.67288 9.39189 2.72002 9.32373 2.78372 9.27357C2.84742 9.22341 2.92474 9.19358 3.00562 9.18795L8.99999 8.69951C9.06894 8.69403 9.13503 8.66959 9.19096 8.62888C9.24688 8.58818 9.29046 8.53281 9.31687 8.46888L11.625 2.88138C11.6552 2.80564 11.7075 2.7407 11.775 2.69496C11.8425 2.64922 11.9222 2.62476 12.0037 2.62476C12.0853 2.62476 12.165 2.64922 12.2325 2.69496C12.3 2.7407 12.3523 2.80564 12.3825 2.88138L14.6906 8.46888C14.7164 8.53175 14.7589 8.58642 14.8134 8.62704C14.8679 8.66766 14.9324 8.69271 15 8.69951L20.9906 9.18232C21.0715 9.18795 21.1488 9.21779 21.2125 9.26795C21.2762 9.3181 21.3234 9.38627 21.3478 9.46357C21.3761 9.54202 21.3797 9.62722 21.3583 9.70779C21.3368 9.78837 21.2913 9.86049 21.2278 9.91451Z" fill="black"/>
</svg>
