<svg width="24" height="24" viewBox="0 0 24 24" fill="none" xmlns="http://www.w3.org/2000/svg">
<path d="M21.2653 7.01552L9.26531 19.0155C9.23048 19.0504 9.18912 19.078 9.1436 19.0969C9.09807 19.1158 9.04928 19.1255 8.99999 19.1255C8.95071 19.1255 8.90192 19.1158 8.85639 19.0969C8.81087 19.078 8.76951 19.0504 8.73468 19.0155L3.48468 13.7655C3.41432 13.6952 3.37479 13.5997 3.37479 13.5002C3.37479 13.4007 3.41432 13.3053 3.48468 13.2349C3.55505 13.1645 3.65048 13.125 3.74999 13.125C3.84951 13.125 3.94494 13.1645 4.01531 13.2349L8.99999 18.2196L20.7347 6.4849C20.805 6.41453 20.9005 6.375 21 6.375C21.0995 6.375 21.1949 6.41453 21.2653 6.4849C21.3357 6.55526 21.3752 6.6507 21.3752 6.75021C21.3752 6.84972 21.3357 6.94516 21.2653 7.01552Z" fill="black"/>
</svg>
