<svg width="36" height="36" viewBox="0 0 36 36" fill="none" xmlns="http://www.w3.org/2000/svg">
<path d="M30.8967 16.5066C30.8369 16.2391 30.7128 15.9902 30.5351 15.7815C30.3575 15.5727 30.1317 15.4104 29.8772 15.3085L22.68 12.4299L24.1692 2.50036C24.2239 2.1438 24.1629 1.77911 23.9951 1.45977C23.8273 1.14044 23.5616 0.883267 23.237 0.725984C22.9124 0.568702 22.5459 0.519584 22.1913 0.585836C21.8367 0.652089 21.5127 0.830224 21.2667 1.09411L5.51674 17.9691C5.32952 18.1696 5.194 18.4127 5.12192 18.6774C5.04984 18.9421 5.04337 19.2203 5.10307 19.4881C5.16277 19.7558 5.28683 20.0049 5.46452 20.2139C5.64222 20.4229 5.86818 20.5854 6.12283 20.6874L13.32 23.566L11.8308 33.4997C11.7761 33.8563 11.8372 34.221 12.0049 34.5403C12.1727 34.8597 12.4384 35.1168 12.763 35.2741C13.0877 35.4314 13.4542 35.4805 13.8087 35.4143C14.1633 35.348 14.4874 35.1699 14.7333 34.906L30.4833 18.031C30.6713 17.8299 30.8073 17.5859 30.8794 17.3202C30.9514 17.0545 30.9574 16.7752 30.8967 16.5066ZM15.975 28.6243L16.8567 22.7504C16.9131 22.3744 16.8408 21.9905 16.6517 21.6607C16.4626 21.3309 16.1677 21.0747 15.8147 20.9335L9.66658 18.474L20.025 7.37583L19.1433 13.2497C19.087 13.6257 19.1592 14.0096 19.3483 14.3394C19.5375 14.6692 19.8324 14.9254 20.1853 15.0666L26.3335 17.5261L15.975 28.6243Z" fill="#1FFFA5"/>
</svg>
