<svg width="24" height="24" viewBox="0 0 24 24" fill="none" xmlns="http://www.w3.org/2000/svg">
<path d="M20.5965 11.0041C20.5566 10.8258 20.4739 10.6598 20.3555 10.5207C20.237 10.3815 20.0865 10.2733 19.9168 10.2053L15.1187 8.28627L16.1115 1.66658C16.148 1.42888 16.1073 1.18575 15.9954 0.972856C15.8836 0.759966 15.7065 0.588519 15.49 0.483664C15.2736 0.378809 15.0293 0.346064 14.7929 0.390232C14.5565 0.4344 14.3405 0.553157 14.1765 0.729083L3.67652 11.9791C3.55171 12.1127 3.46137 12.2748 3.41331 12.4513C3.36526 12.6277 3.36094 12.8132 3.40074 12.9917C3.44054 13.1702 3.52325 13.3363 3.64171 13.4756C3.76018 13.6149 3.91082 13.7233 4.08059 13.7913L8.87871 15.7103L7.8859 22.3328C7.84945 22.5705 7.89014 22.8137 8.00199 23.0266C8.11384 23.2395 8.29097 23.4109 8.50739 23.5158C8.72381 23.6206 8.96813 23.6534 9.20453 23.6092C9.44092 23.565 9.65694 23.4463 9.8209 23.2703L20.3209 12.0203C20.4463 11.8863 20.5369 11.7236 20.5849 11.5464C20.633 11.3693 20.637 11.1831 20.5965 11.0041ZM10.6487 19.0825L11.2365 15.1666C11.2741 14.916 11.2259 14.66 11.0998 14.4401C10.9738 14.2203 10.7771 14.0495 10.5418 13.9553L6.44309 12.3156L13.3487 4.9169L12.7609 8.83283C12.7233 9.08346 12.7715 9.33944 12.8976 9.55928C13.0237 9.77912 13.2203 9.94994 13.4556 10.0441L17.5543 11.6838L10.6487 19.0825Z" fill="black"/>
</svg>
