<svg width="24" height="25" viewBox="0 0 24 25" fill="none" xmlns="http://www.w3.org/2000/svg">
<path d="M21.6244 8.95382L12.6244 2.95382C12.4395 2.83047 12.2222 2.76465 12 2.76465C11.7778 2.76465 11.5605 2.83047 11.3756 2.95382L2.37563 8.95382C2.22138 9.05672 2.09497 9.19616 2.00763 9.35972C1.92029 9.52328 1.87473 9.7059 1.875 9.89132V19.6413C1.875 20.1386 2.07255 20.6155 2.42418 20.9671C2.77581 21.3188 3.25272 21.5163 3.75 21.5163H20.25C20.7473 21.5163 21.2242 21.3188 21.5758 20.9671C21.9275 20.6155 22.125 20.1386 22.125 19.6413V9.89132C22.1253 9.7059 22.0797 9.52328 21.9924 9.35972C21.905 9.19616 21.7786 9.05672 21.6244 8.95382ZM12 5.24319L19.0181 9.92225L13.2759 14.0163H10.7241L4.98188 9.92225L12 5.24319ZM4.125 19.2663V12.0748L9.71063 16.0573C9.90214 16.1938 10.1316 16.2669 10.3669 16.2663H13.6388C13.874 16.2669 14.1035 16.1938 14.295 16.0573L19.875 12.0748V19.2663H4.125Z" fill="#1FFFA5"/>
</svg>
