<svg width="25" height="25" viewBox="0 0 25 25" fill="none" xmlns="http://www.w3.org/2000/svg">
<path d="M20.0039 5.02171C18.5822 3.62312 16.7789 2.67596 14.8205 2.29928C12.8621 1.92259 10.8361 2.13318 8.99701 2.90459C7.15796 3.67599 5.58796 4.97379 4.48433 6.63486C3.3807 8.29594 2.79269 10.2462 2.79419 12.2405C2.79419 16.433 5.38169 19.9514 9.54419 21.4223C10.0532 21.6023 10.598 21.6575 11.1328 21.5834C11.6676 21.5092 12.1769 21.3078 12.6177 20.9961C13.0586 20.6843 13.4182 20.2714 13.6664 19.7919C13.9146 19.3124 14.0442 18.7804 14.0442 18.2405C14.0442 17.9421 14.1627 17.6559 14.3737 17.445C14.5847 17.234 14.8708 17.1155 15.1692 17.1155H19.5014C20.2671 17.1191 21.011 16.8606 21.6095 16.3832C22.2081 15.9057 22.6254 15.2378 22.792 14.4905C22.9659 13.7244 23.0505 12.9407 23.0442 12.1551C23.0349 10.824 22.7614 9.50803 22.2395 8.28348C21.7176 7.05893 20.9577 5.95023 20.0039 5.02171ZM20.5983 13.9908C20.5424 14.2395 20.4031 14.4616 20.2036 14.6202C20.0041 14.7788 19.7563 14.8643 19.5014 14.8626H15.1692C14.2741 14.8626 13.4156 15.2182 12.7827 15.8512C12.1498 16.4841 11.7942 17.3425 11.7942 18.2376C11.794 18.4175 11.7507 18.5947 11.6678 18.7544C11.585 18.914 11.4651 19.0515 11.3182 19.1553C11.1713 19.2591 11.0016 19.3261 10.8234 19.3507C10.6453 19.3754 10.4638 19.357 10.2942 19.297C8.73325 18.7458 7.42075 17.8195 6.49919 16.6195C5.54186 15.3616 5.03 13.8211 5.04419 12.2405C5.04408 10.1659 5.86256 8.17516 7.32182 6.70063C8.78107 5.2261 10.7632 4.38694 12.8376 4.36546H12.9192C14.9937 4.3739 16.9818 5.1972 18.4549 6.65786C19.928 8.11852 20.7681 10.0996 20.7942 12.1739C20.7993 12.7863 20.7335 13.3972 20.5983 13.9945V13.9908ZM14.4192 7.36546C14.4192 7.66213 14.3312 7.95214 14.1664 8.19881C14.0016 8.44549 13.7673 8.63775 13.4932 8.75128C13.2191 8.86481 12.9175 8.89451 12.6266 8.83664C12.3356 8.77876 12.0683 8.6359 11.8585 8.42612C11.6488 8.21634 11.5059 7.94906 11.448 7.65809C11.3901 7.36712 11.4198 7.06552 11.5334 6.79143C11.6469 6.51734 11.8392 6.28308 12.0858 6.11825C12.3325 5.95343 12.6225 5.86546 12.9192 5.86546C13.317 5.86546 13.6985 6.02349 13.9799 6.3048C14.2612 6.5861 14.4192 6.96763 14.4192 7.36546ZM10.2942 9.61546C10.2942 9.91213 10.2062 10.2021 10.0414 10.4488C9.87657 10.6955 9.64231 10.8877 9.36822 11.0013C9.09413 11.1148 8.79253 11.1445 8.50156 11.0866C8.21059 11.0288 7.94331 10.8859 7.73353 10.6761C7.52375 10.4663 7.38089 10.1991 7.32301 9.90809C7.26514 9.61712 7.29484 9.31552 7.40837 9.04143C7.5219 8.76734 7.71416 8.53308 7.96084 8.36825C8.20751 8.20343 8.49752 8.11546 8.79419 8.11546C9.19202 8.11546 9.57355 8.27349 9.85485 8.5548C10.1362 8.8361 10.2942 9.21763 10.2942 9.61546ZM10.2942 14.8655C10.2942 15.1621 10.2062 15.4521 10.0414 15.6988C9.87657 15.9455 9.64231 16.1377 9.36822 16.2513C9.09413 16.3648 8.79253 16.3945 8.50156 16.3366C8.21059 16.2788 7.94331 16.1359 7.73353 15.9261C7.52375 15.7163 7.38089 15.4491 7.32301 15.1581C7.26514 14.8671 7.29484 14.5655 7.40837 14.2914C7.5219 14.0173 7.71416 13.7831 7.96084 13.6183C8.20751 13.4534 8.49752 13.3655 8.79419 13.3655C9.19202 13.3655 9.57355 13.5235 9.85485 13.8048C10.1362 14.0861 10.2942 14.4676 10.2942 14.8655ZM18.5442 9.61546C18.5442 9.91213 18.4562 10.2021 18.2914 10.4488C18.1266 10.6955 17.8923 10.8877 17.6182 11.0013C17.3441 11.1148 17.0425 11.1445 16.7516 11.0866C16.4606 11.0288 16.1933 10.8859 15.9835 10.6761C15.7738 10.4663 15.6309 10.1991 15.573 9.90809C15.5151 9.61712 15.5448 9.31552 15.6584 9.04143C15.7719 8.76734 15.9642 8.53308 16.2108 8.36825C16.4575 8.20343 16.7475 8.11546 17.0442 8.11546C17.442 8.11546 17.8235 8.27349 18.1049 8.5548C18.3862 8.8361 18.5442 9.21763 18.5442 9.61546Z" fill="black"/>
</svg>
