<svg width="25" height="25" viewBox="0 0 25 25" fill="none" xmlns="http://www.w3.org/2000/svg">
<path d="M21.0857 15.3383L16.671 13.3592L16.6542 13.3517C16.3672 13.228 16.0538 13.1782 15.7426 13.2068C15.4315 13.2355 15.1324 13.3417 14.8729 13.5158C14.8365 13.5401 14.8015 13.5664 14.7679 13.5945L12.6763 15.3758C11.4576 14.7148 10.1985 13.4661 9.53666 12.2623L11.3235 10.1379C11.3523 10.1037 11.3789 10.0677 11.4032 10.0301C11.5727 9.77153 11.6756 9.47503 11.7028 9.16703C11.7299 8.85903 11.6805 8.54909 11.5588 8.26482C11.556 8.25938 11.5535 8.25374 11.5513 8.24795L9.57322 3.82576C9.41085 3.45594 9.13373 3.14822 8.78287 2.94814C8.43201 2.74806 8.02606 2.66625 7.6251 2.71482C6.26419 2.8936 5.0149 3.56164 4.11054 4.59419C3.20618 5.62673 2.7086 6.95317 2.71072 8.32576C2.71072 15.9767 8.93479 22.2008 16.5857 22.2008C17.9583 22.2029 19.2848 21.7053 20.3173 20.8009C21.3498 19.8966 22.0179 18.6473 22.1967 17.2864C22.2452 16.8854 22.1634 16.4795 21.9633 16.1286C21.7633 15.7778 21.4555 15.5006 21.0857 15.3383ZM16.5857 19.9508C13.5037 19.947 10.549 18.7211 8.36972 16.5418C6.19041 14.3625 4.96444 11.4078 4.96072 8.32576C4.95858 7.54904 5.22227 6.79496 5.70799 6.18884C6.1937 5.58272 6.8722 5.16104 7.63072 4.99389L9.3951 8.93139L7.59885 11.0708C7.56981 11.1054 7.54289 11.1417 7.51822 11.1795C7.34118 11.45 7.23708 11.7617 7.21606 12.0844C7.19503 12.407 7.25778 12.7296 7.39822 13.0208C8.28135 14.8283 10.101 16.6358 11.9273 17.5208C12.2204 17.6597 12.5446 17.7203 12.8682 17.6964C13.1918 17.6726 13.5036 17.5652 13.7732 17.3848C13.8095 17.3604 13.8442 17.3338 13.8773 17.3051L15.9801 15.5173L19.9176 17.2808C19.7504 18.0393 19.3288 18.7178 18.7226 19.2035C18.1165 19.6892 17.3624 19.9529 16.5857 19.9508Z" fill="#1FFFA5"/>
</svg>
