<svg width="36" height="36" viewBox="0 0 36 36" fill="none" xmlns="http://www.w3.org/2000/svg">
<path d="M32.0414 6.59396C31.9994 5.90876 31.7083 5.26257 31.2229 4.77715C30.7375 4.29173 30.0913 4.00061 29.4061 3.95865C27.5597 3.85037 22.8459 4.01771 18.9323 7.9299L18.4218 8.43755H10.4568C10.0873 8.43632 9.72127 8.50853 9.37992 8.65C9.03856 8.79147 8.72872 8.99937 8.46841 9.26162L3.63794 14.0893C3.26815 14.4589 3.00871 14.9243 2.88875 15.4332C2.76879 15.9421 2.79306 16.4743 2.95884 16.9702C3.12461 17.4661 3.42533 17.9059 3.82723 18.2404C4.22913 18.5748 4.7163 18.7906 5.23404 18.8635L10.4568 19.5919L16.4081 25.5432L17.1379 30.7716C17.209 31.2902 17.4243 31.7783 17.7591 32.1806C18.094 32.5829 18.5351 32.883 19.0322 33.0469C19.3213 33.1416 19.6237 33.1891 19.9279 33.1876C20.2965 33.1873 20.6614 33.1143 21.0017 32.9726C21.342 32.831 21.6509 32.6235 21.9108 32.3621L26.7398 27.5316C27.0017 27.2711 27.2092 26.9612 27.3505 26.6199C27.4917 26.2785 27.5637 25.9126 27.5625 25.5432V17.5782L28.0687 17.0733C31.9823 13.1541 32.1497 8.43755 32.0414 6.59396ZM10.6875 11.8126H15.0468L10.6523 16.2113L6.8231 15.6769L10.6875 11.8126ZM21.3187 10.3177C22.2816 9.34684 23.4306 8.58026 24.6967 8.06389C25.9629 7.54752 27.3202 7.29198 28.6875 7.31255C28.7089 8.68025 28.4536 10.0382 27.9369 11.3047C27.4202 12.5712 26.6529 13.7202 25.6809 14.6827L18 22.3594L13.6406 18.0001L21.3187 10.3177ZM24.1875 25.3126L20.3217 29.1783L19.7873 25.3491L24.1875 20.9532V25.3126ZM14.0625 28.4063C12.8376 30.0727 10.3795 32.0626 5.62497 32.0626C5.17742 32.0626 4.7482 31.8848 4.43173 31.5683C4.11526 31.2518 3.93747 30.8226 3.93747 30.3751C3.93747 25.6163 5.9231 23.1582 7.59372 21.9376C7.77048 21.7891 7.97582 21.6784 8.19704 21.6124C8.41827 21.5465 8.65068 21.5266 8.8799 21.5541C9.10911 21.5815 9.33026 21.6557 9.52965 21.772C9.72904 21.8884 9.90245 22.0444 10.0391 22.2304C10.1758 22.4165 10.2729 22.6286 10.3243 22.8536C10.3757 23.0787 10.3804 23.3119 10.3381 23.5388C10.2958 23.7658 10.2074 23.9816 10.0784 24.173C9.94929 24.3644 9.78232 24.5273 9.58779 24.6516C8.76091 25.2605 7.80607 26.4094 7.4531 28.5469C9.592 28.194 10.7395 27.2391 11.3484 26.4122C11.4727 26.2177 11.6356 26.0507 11.827 25.9217C12.0184 25.7926 12.2342 25.7042 12.4612 25.6619C12.6881 25.6196 12.9213 25.6243 13.1464 25.6757C13.3714 25.7271 13.5835 25.8242 13.7696 25.9609C13.9556 26.0976 14.1116 26.271 14.228 26.4704C14.3443 26.6698 14.4185 26.8909 14.446 27.1201C14.4734 27.3493 14.4535 27.5818 14.3876 27.803C14.3216 28.0242 14.211 28.2296 14.0625 28.4063Z" fill="#1FFFA5"/>
</svg>
