<svg width="24" height="25" viewBox="0 0 24 25" fill="none" xmlns="http://www.w3.org/2000/svg">
<path d="M21.3609 4.74754C21.333 4.29074 21.1389 3.85994 20.8153 3.53633C20.4917 3.21272 20.0609 3.01864 19.6041 2.99066C18.3731 2.91847 15.2306 3.03004 12.6216 5.63816L12.2812 5.9766H6.97124C6.7249 5.97578 6.48086 6.02392 6.25329 6.11823C6.02572 6.21254 5.81916 6.35114 5.64562 6.52597L2.42531 9.74441C2.17878 9.99083 2.00581 10.3011 1.92584 10.6404C1.84587 10.9796 1.86205 11.3345 1.97257 11.665C2.08309 11.9956 2.28356 12.2888 2.5515 12.5118C2.81943 12.7348 3.14421 12.8786 3.48937 12.9272L6.97124 13.4128L10.9387 17.3803L11.4253 20.866C11.4727 21.2117 11.6162 21.5371 11.8394 21.8053C12.0627 22.0735 12.3567 22.2736 12.6881 22.3829C12.8808 22.446 13.0825 22.4776 13.2853 22.4766C13.531 22.4764 13.7743 22.4277 14.0011 22.3333C14.228 22.2389 14.4339 22.1005 14.6072 21.9263L17.8266 18.706C18.0011 18.5323 18.1395 18.3257 18.2336 18.0981C18.3278 17.8706 18.3758 17.6266 18.375 17.3803V12.0703L18.7125 11.7338C21.3216 9.12097 21.4331 5.9766 21.3609 4.74754ZM7.12499 8.2266H10.0312L7.10155 11.1591L4.54874 10.8028L7.12499 8.2266ZM14.2125 7.23004C14.8544 6.58279 15.6204 6.07174 16.4645 5.72749C17.3086 5.38325 18.2135 5.21288 19.125 5.2266C19.1393 6.13839 18.969 7.04366 18.6246 7.88802C18.2802 8.73237 17.7686 9.49839 17.1206 10.14L12 15.2578L9.09374 12.3516L14.2125 7.23004ZM16.125 17.2266L13.5478 19.8038L13.1916 17.251L16.125 14.3203V17.2266ZM9.37499 19.2891C8.55843 20.4 6.91968 21.7266 3.74999 21.7266C3.45162 21.7266 3.16548 21.6081 2.9545 21.3971C2.74352 21.1861 2.62499 20.9 2.62499 20.6016C2.62499 17.4291 3.94874 15.7903 5.06249 14.9766C5.18033 14.8776 5.31722 14.8038 5.46471 14.7599C5.61219 14.7159 5.76713 14.7026 5.91994 14.7209C6.07275 14.7392 6.22018 14.7887 6.35311 14.8663C6.48604 14.9438 6.60164 15.0478 6.69277 15.1719C6.78389 15.2959 6.8486 15.4373 6.88288 15.5873C6.91717 15.7374 6.92031 15.8928 6.89211 16.0441C6.8639 16.1954 6.80495 16.3393 6.71891 16.4669C6.63287 16.5945 6.52156 16.7031 6.39187 16.786C5.84062 17.1919 5.20406 17.9578 4.96874 19.3828C6.39468 19.1475 7.15968 18.511 7.56562 17.9597C7.64848 17.83 7.75707 17.7187 7.88467 17.6327C8.01227 17.5466 8.15617 17.4877 8.30747 17.4595C8.45877 17.4313 8.61424 17.4344 8.76427 17.4687C8.91431 17.503 9.05571 17.5677 9.17974 17.6588C9.30376 17.7499 9.40777 17.8656 9.48533 17.9985C9.56289 18.1314 9.61235 18.2788 9.63065 18.4316C9.64895 18.5845 9.63571 18.7394 9.59173 18.8869C9.54776 19.0344 9.47399 19.1713 9.37499 19.2891Z" fill="black"/>
</svg>
