<svg width="25" height="24" viewBox="0 0 25 24" fill="none" xmlns="http://www.w3.org/2000/svg">
<path d="M22.7486 19.6874C21.4632 17.4315 19.4561 15.6737 17.0504 14.6971C18.2468 13.7998 19.1305 12.5489 19.5763 11.1215C20.0222 9.69412 20.0077 8.16262 19.5348 6.74395C19.0619 5.32527 18.1546 4.09135 16.9415 3.21697C15.7283 2.34259 14.2708 1.87207 12.7754 1.87207C11.28 1.87207 9.82251 2.34259 8.60936 3.21697C7.39622 4.09135 6.48895 5.32527 6.01606 6.74395C5.54317 8.16262 5.52863 9.69412 5.97452 11.1215C6.4204 12.5489 7.30409 13.7998 8.50042 14.6971C6.09473 15.6737 4.08765 17.4315 2.8023 19.6874C2.72265 19.8154 2.66957 19.9582 2.64621 20.1072C2.62284 20.2562 2.62967 20.4084 2.66629 20.5547C2.70291 20.701 2.76857 20.8384 2.85936 20.9588C2.95016 21.0792 3.06424 21.1802 3.19483 21.2556C3.32541 21.3311 3.46983 21.3795 3.6195 21.398C3.76917 21.4165 3.92103 21.4047 4.06607 21.3634C4.2111 21.322 4.34634 21.252 4.46374 21.1573C4.58115 21.0626 4.67832 20.9453 4.74949 20.8124C6.44824 17.8761 9.44824 16.1249 12.7754 16.1249C16.1026 16.1249 19.1026 17.8771 20.8014 20.8124C20.9556 21.0604 21.2002 21.2387 21.4835 21.3096C21.7668 21.3805 22.0666 21.3385 22.3195 21.1924C22.5724 21.0463 22.7585 20.8076 22.8386 20.5267C22.9186 20.2458 22.8864 19.9449 22.7486 19.6874ZM7.90042 8.99988C7.90042 8.0357 8.18634 7.09317 8.72201 6.29148C9.25768 5.48979 10.0191 4.86495 10.9098 4.49597C11.8006 4.12699 12.7808 4.03045 13.7265 4.21855C14.6721 4.40666 15.5408 4.87096 16.2226 5.55274C16.9044 6.23452 17.3687 7.10316 17.5568 8.04882C17.7449 8.99447 17.6483 9.97467 17.2793 10.8655C16.9104 11.7563 16.2855 12.5176 15.4838 13.0533C14.6821 13.589 13.7396 13.8749 12.7754 13.8749C11.483 13.8734 10.2438 13.3593 9.32992 12.4454C8.41601 11.5315 7.90191 10.2924 7.90042 8.99988Z" fill="#1FFFA5"/>
</svg>
